<?xml version="1.0" standalone="no"?>
<!DOCTYPE svg PUBLIC "-//W3C//DTD SVG 20010904//EN"
 "http://www.w3.org/TR/2001/REC-SVG-20010904/DTD/svg10.dtd">
<svg version="1.0" xmlns="http://www.w3.org/2000/svg"
 width="404.000000pt" height="407.000000pt" viewBox="0 0 404.000000 407.000000"
 preserveAspectRatio="xMidYMid meet">

<g transform="translate(0.000000,407.000000) scale(0.100000,-0.100000)"
fill="#000000" stroke="none">
<path d="M2233 3195 c-112 -31 -237 -111 -302 -194 -19 -23 -32 -44 -30 -46 2
-2 31 12 63 32 191 112 375 131 532 53 166 -81 255 -236 270 -466 10 -164 -17
-294 -106 -519 -30 -76 -143 -252 -236 -367 -49 -60 -52 -67 -34 -73 32 -10
50 -34 50 -66 0 -18 5 -29 14 -29 20 0 253 244 329 345 82 109 127 194 160
300 37 118 60 320 55 485 l-3 138 -48 95 c-66 134 -132 199 -272 269 l-107 53
-142 2 c-100 2 -156 -1 -193 -12z"/>
<path d="M1407 3029 c-143 -21 -307 -142 -367 -270 -110 -238 -84 -486 80
-743 l31 -48 24 22 c15 14 41 24 70 27 55 7 60 13 37 44 -43 56 -71 144 -82
259 l-7 75 -2 -59 c-2 -82 -12 -63 -21 36 -11 118 3 239 35 304 36 73 117 159
179 191 46 24 63 27 186 30 150 3 232 -14 302 -62 20 -14 40 -25 43 -25 13 0
-62 94 -97 121 -55 44 -160 89 -230 99 -73 11 -101 11 -181 -1z"/>
<path d="M1838 2763 c6 -2 9 -10 6 -15 -4 -7 -2 -8 4 -4 18 11 14 26 -5 25
-11 0 -13 -3 -5 -6z"/>
<path d="M1329 2613 c-13 -16 -12 -17 4 -4 9 7 17 15 17 17 0 8 -8 3 -21 -13z"/>
<path d="M1237 2479 c4 -13 8 -18 11 -10 2 7 -1 18 -6 23 -8 8 -9 4 -5 -13z"/>
<path d="M2033 2468 c1 -15 6 -23 11 -18 4 4 4 16 -2 26 -9 16 -10 14 -9 -8z"/>
<path d="M1310 2441 c5 -11 15 -23 21 -27 6 -3 3 5 -6 20 -20 30 -30 35 -15 7z"/>
<path d="M588 1979 c-12 -6 -18 -22 -18 -43 0 -26 12 -47 55 -95 l55 -62 0
-213 0 -214 -32 -26 c-18 -15 -39 -31 -45 -37 -18 -14 -16 -74 2 -89 18 -15
173 -22 234 -10 48 9 61 22 61 62 0 21 -10 34 -45 58 l-45 31 0 155 0 155 170
-197 c110 -126 173 -207 177 -226 8 -41 39 -50 164 -46 88 2 111 6 128 22 29
26 27 48 -14 120 l-35 63 0 221 0 221 38 28 c47 35 52 42 52 75 0 47 -30 58
-161 58 -130 0 -149 -9 -149 -68 0 -26 8 -36 45 -62 l45 -31 0 -145 c0 -80 -4
-144 -9 -142 -5 2 -73 77 -151 168 -203 235 -222 256 -247 269 -27 14 -251 14
-275 0z"/>
<path d="M1453 1830 c-21 -8 -23 -16 -23 -78 l0 -68 118 -87 c100 -75 121 -87
146 -82 16 3 32 7 34 10 3 3 -22 34 -56 69 -46 47 -60 69 -55 82 5 13 3 16 -9
11 -18 -7 -67 42 -60 61 2 7 -2 10 -12 6 -12 -5 -15 -2 -9 12 5 13 3 16 -8 12
-15 -6 -42 16 -32 26 4 3 1 6 -5 6 -6 0 -9 7 -6 15 7 17 7 17 -23 5z"/>
<path d="M2146 1768 c3 -5 10 -6 15 -3 13 9 11 12 -6 12 -8 0 -12 -4 -9 -9z"/>
<path d="M2095 1741 c-3 -5 0 -13 6 -17 8 -5 9 -3 4 6 -6 10 -4 12 9 7 10 -4
15 -3 11 3 -8 13 -22 13 -30 1z"/>
<path d="M1868 1683 c7 -3 16 -2 19 1 4 3 -2 6 -13 5 -11 0 -14 -3 -6 -6z"/>
<path d="M1955 1670 c3 -5 8 -10 11 -10 2 0 4 5 4 10 0 6 -5 10 -11 10 -5 0
-7 -4 -4 -10z"/>
<path d="M1848 1663 c7 -3 16 -2 19 1 4 3 -2 6 -13 5 -11 0 -14 -3 -6 -6z"/>
<path d="M3083 1584 c-36 -15 -48 -30 -33 -39 5 -3 10 -15 10 -26 0 -15 -7
-19 -38 -19 -47 0 -80 -22 -98 -66 -19 -46 -17 -93 6 -131 24 -40 61 -51 104
-30 21 10 38 12 47 6 24 -15 99 -11 99 5 0 8 -4 18 -10 21 -6 4 -10 65 -10
151 0 143 0 144 -22 143 -13 0 -37 -7 -55 -15z m-23 -205 c0 -54 -3 -69 -15
-69 -34 0 -49 104 -19 134 25 26 34 9 34 -65z"/>
<path d="M2306 1574 c-9 -8 -16 -19 -16 -24 0 -19 34 -40 65 -40 41 0 70 32
54 62 -12 23 -81 25 -103 2z"/>
<path d="M2762 1578 c-33 -33 2 -72 60 -66 38 4 58 30 42 56 -13 21 -84 28
-102 10z"/>
<path d="M1874 1525 c-14 -19 -35 -35 -45 -35 -23 0 -24 -13 -4 -30 11 -9 15
-33 15 -84 0 -86 11 -105 67 -113 37 -5 46 -2 73 25 16 17 30 35 30 41 0 14
-23 14 -37 0 -21 -21 -33 2 -33 60 0 55 1 57 32 66 46 14 48 35 4 35 -29 0
-36 4 -36 19 0 59 -28 66 -66 16z"/>
<path d="M1538 1483 c-37 -15 -48 -35 -28 -48 6 -3 10 -30 10 -60 0 -114 47
-143 133 -83 15 11 20 10 28 -4 7 -13 23 -18 54 -18 43 0 65 12 45 25 -6 3
-10 48 -10 101 0 110 -5 116 -75 89 -43 -16 -57 -36 -35 -50 6 -3 10 -28 10
-56 0 -27 -4 -50 -10 -50 -34 -6 -35 -2 -40 81 -6 96 -12 102 -82 73z"/>
<path d="M2072 1480 c-42 -19 -43 -20 -28 -42 18 -25 22 -123 6 -133 -5 -3
-10 -13 -10 -21 0 -11 16 -14 75 -14 62 0 75 3 75 16 0 9 -9 18 -20 21 -19 5
-21 12 -18 66 2 37 8 62 16 65 7 2 12 -5 12 -17 0 -11 9 -25 21 -31 42 -23 76
40 49 91 -14 25 -54 24 -79 -2 l-19 -21 -7 21 c-8 26 -18 26 -73 1z"/>
<path d="M2328 1483 c-39 -15 -47 -30 -27 -50 11 -11 8 -100 -6 -140 -7 -22
-5 -23 60 -23 65 0 67 1 59 23 -4 12 -9 64 -11 115 -5 103 -6 104 -75 75z"/>
<path d="M2778 1480 c-37 -20 -47 -35 -28 -42 13 -4 15 -110 2 -135 -16 -29
-7 -33 65 -33 62 0 78 11 53 36 -5 5 -10 50 -12 99 -3 81 -5 90 -23 92 -11 1
-37 -6 -57 -17z"/>
<path d="M3263 1485 c-42 -18 -58 -48 -37 -69 8 -9 21 -16 28 -16 19 0 44 23
48 44 6 39 28 29 28 -12 0 -38 -2 -40 -37 -47 -72 -13 -97 -46 -77 -99 9 -24
66 -30 103 -12 17 9 31 12 31 7 0 -19 60 -23 85 -7 28 18 33 46 10 46 -12 0
-15 14 -15 69 0 63 -2 71 -26 90 -31 25 -93 27 -141 6z m67 -150 c0 -26 -14
-33 -25 -15 -9 14 1 40 15 40 5 0 10 -11 10 -25z"/>
<path d="M2440 1483 c1 -5 24 -55 53 -113 53 -107 64 -118 112 -106 17 4 31
26 60 93 20 49 41 92 46 98 21 22 8 35 -36 35 -33 0 -45 -4 -45 -14 0 -8 5
-18 10 -21 15 -9 12 -38 -9 -86 l-20 -44 -15 36 c-26 62 -29 84 -12 98 30 25
16 31 -64 31 -44 0 -80 -3 -80 -7z"/>
<path d="M2260 1375 c-11 -13 -10 -14 4 -9 9 3 16 10 16 15 0 13 -6 11 -20 -6z"/>
<path d="M2180 1345 c0 -19 19 -19 44 0 19 14 18 15 -12 15 -22 0 -32 -5 -32
-15z"/>
<path d="M1957 1235 c-63 -43 -69 -50 -27 -32 68 28 90 40 90 48 0 19 -18 14
-63 -16z"/>
<path d="M1023 1135 c-34 -24 -31 -74 7 -110 37 -35 51 -27 16 8 -32 32 -32
42 -1 72 30 31 36 31 132 0 89 -28 135 -31 153 -10 14 17 0 21 -17 4 -8 -8
-34 -4 -94 14 -119 36 -169 41 -196 22z"/>
<path d="M1151 1061 c-25 -35 -91 -171 -91 -188 0 -23 16 -22 46 3 27 23 27
24 6 19 -21 -6 -23 -4 -17 17 4 12 27 55 51 94 24 39 44 74 44 77 0 16 -20 5
-39 -22z"/>
<path d="M2488 1073 c-21 -24 -85 -152 -93 -185 -8 -32 8 -37 40 -14 11 8 25
12 32 9 7 -3 20 0 28 7 13 11 18 10 29 -6 12 -15 16 -16 30 -5 21 17 21 32 0
24 -13 -5 -15 -2 -9 18 4 13 12 30 18 37 8 10 7 16 -4 23 -25 16 -33 11 -103
-72 -9 -10 -20 -19 -26 -19 -20 0 -9 30 40 103 28 41 50 80 50 86 0 16 -15 13
-32 -6z m43 -121 c-12 -23 -41 -48 -41 -35 0 10 37 53 46 53 2 0 0 -8 -5 -18z"/>
<path d="M1393 1053 c-26 -38 -83 -161 -83 -178 0 -23 16 -18 50 18 18 17 34
28 36 22 14 -32 25 -39 61 -37 20 2 41 8 45 15 5 8 11 6 22 -8 11 -16 17 -17
27 -8 7 7 24 9 40 6 18 -3 38 1 54 11 23 15 26 15 31 1 3 -8 14 -15 24 -15 20
0 72 39 53 40 -6 0 -15 -4 -18 -10 -3 -5 -13 -10 -22 -10 -10 0 -5 10 16 29
32 30 38 45 21 56 -17 11 -44 -4 -65 -35 -20 -29 -70 -58 -82 -47 -11 11 27
57 47 57 20 0 26 11 14 23 -11 11 -65 -27 -80 -55 -8 -16 -21 -28 -29 -28 -13
0 -13 4 0 37 15 36 10 52 -18 53 -10 0 -46 -36 -69 -70 l-18 -25 -26 33 -27
33 -30 -28 -31 -28 18 30 c10 17 29 41 41 55 25 28 45 63 45 79 0 21 -29 11
-47 -16z m8 -26 c-10 -9 -11 -8 -5 6 3 10 9 15 12 12 3 -3 0 -11 -7 -18z m124
-87 c-10 -11 -23 -20 -28 -20 -6 0 0 11 13 25 27 29 42 25 15 -5z"/>
<path d="M2920 1028 c-17 -23 -45 -48 -63 -56 -18 -7 -45 -25 -61 -40 -24 -22
-28 -24 -22 -7 5 11 9 25 10 32 1 7 10 21 21 33 10 11 16 23 13 26 -3 3 -15
-6 -26 -20 -11 -15 -24 -26 -28 -26 -4 0 -24 -15 -42 -32 -35 -33 -39 -28 -17
25 9 23 -11 22 -24 -1 -5 -9 -12 -34 -16 -55 -9 -49 12 -50 54 -2 34 39 47 45
31 16 -5 -11 -10 -24 -10 -29 0 -17 54 -21 82 -6 26 14 28 13 28 -6 0 -31 17
-24 24 11 3 17 26 60 51 95 25 34 45 67 45 73 0 23 -21 10 -50 -31z m-50 -82
c0 -17 -47 -49 -63 -43 -7 2 -1 14 15 30 30 30 48 35 48 13z"/>
<path d="M2157 1022 c-19 -21 -22 -32 -7 -32 10 0 34 39 27 46 -2 2 -11 -4
-20 -14z"/>
<path d="M1186 964 c-47 -48 -15 -105 39 -70 15 10 24 20 21 24 -4 3 -12 0
-18 -6 -7 -7 -19 -12 -27 -12 -10 0 -3 11 18 30 18 17 31 36 28 43 -7 22 -33
18 -61 -9z"/>
<path d="M2049 978 c-9 -7 -24 -24 -33 -38 l-17 -25 3 24 c4 32 -16 37 -41 12
-26 -26 -31 -26 -31 -1 0 21 -15 27 -25 10 -3 -5 -15 -15 -26 -21 -20 -10 -20
-10 -4 15 14 22 15 26 3 26 -16 0 -65 -96 -55 -107 4 -3 21 6 37 22 29 28 30
28 44 9 14 -19 15 -18 40 5 25 23 26 24 26 4 0 -16 8 -21 43 -26 28 -4 49 -1
64 9 12 8 24 14 27 14 10 0 -28 -79 -51 -106 -23 -27 -24 -27 -20 -6 4 15 1
22 -6 19 -20 -6 -20 -46 -1 -54 11 -4 23 2 35 18 27 34 89 162 89 182 0 26
-19 20 -26 -8 -3 -14 -19 -31 -37 -40 -46 -23 -52 -18 -17 15 32 30 36 53 9
58 -8 1 -22 -3 -30 -10z"/>
<path d="M2964 979 c-25 -9 -64 -60 -64 -83 0 -19 21 -21 39 -3 10 10 14 9 22
-6 8 -13 14 -15 30 -7 22 12 26 32 4 24 -19 -8 -20 16 0 42 8 10 15 22 15 25
0 12 -25 16 -46 8z m7 -27 c-12 -23 -41 -48 -41 -35 0 5 7 19 16 31 19 27 39
30 25 4z"/>
<path d="M2270 965 c-9 -11 -16 -13 -24 -5 -19 19 -54 10 -81 -21 -14 -17 -24
-37 -22 -43 7 -21 45 -17 76 10 l32 27 -7 -27 c-8 -35 7 -33 35 5 12 16 33 34
47 39 13 5 24 15 24 21 0 6 -6 9 -12 6 -48 -19 -51 -20 -44 -9 11 18 -9 15
-24 -3z m-73 -52 c-9 -9 -19 -14 -23 -11 -10 10 6 28 24 28 15 0 15 -1 -1 -17z"/>
</g>
</svg>
